/* XPM */
static char *b0ceaba8fcdf45569d2999265322e9c8[] = {
/* columns rows colors chars-per-pixel */
"64 64 188 2 ",
"   c None",
".  c #15397D",
"X  c #1A4D78",
"o  c #175F77",
"O  c #36557B",
"+  c #3E796E",
"@  c #266C7B",
"#  c #2E747C",
"$  c #3B7972",
"%  c #32767C",
"&  c #337576",
"*  c #3D6E63",
"=  c #734A59",
"-  c #48755E",
";  c #557A59",
":  c #736556",
">  c #757054",
",  c #435376",
"<  c #664760",
"1  c #446D6A",
"2  c #43756B",
"3  c #447C6C",
"4  c #4B7D6B",
"5  c #4B7C64",
"6  c #5B7F61",
"7  c #547F6B",
"8  c #4B7C77",
"9  c #517F72",
"0  c #AE303C",
"q  c #B1313D",
"w  c #BD2E37",
"e  c #CF292E",
"r  c #DA2729",
"t  c #D2282C",
"y  c #D6272A",
"u  c #C72B32",
"i  c #E12526",
"p  c #93394B",
"a  c #9E3746",
"s  c #813E54",
"d  c #A13341",
"f  c #8A514D",
"g  c #5D845D",
"h  c #778A46",
"j  c #7B934E",
"k  c #638254",
"l  c #6B8C56",
"z  c #62895B",
"x  c #698C5A",
"c  c #688758",
"v  c #728C53",
"b  c #759151",
"n  c #789250",
"m  c #739158",
"M  c #4F8066",
"N  c #538264",
"B  c #5A8561",
"V  c #53816C",
"C  c #4C8176",
"Z  c #5A8873",
"A  c #688A65",
"S  c #7A9968",
"D  c #9B9D3A",
"F  c #979739",
"G  c #8F963C",
"H  c #A59F2F",
"J  c #A29E34",
"K  c #9BA13C",
"L  c #B4AA2E",
"P  c #BFAC28",
"I  c #A5A436",
"U  c #ABA633",
"Y  c #AEA832",
"T  c #A1A339",
"R  c #B2A731",
"E  c #CFB61F",
"W  c #DFBD17",
"Q  c #D1B71E",
"!  c #D5B91C",
"~  c #DBBB19",
"^  c #E3BE14",
"/  c #C4B225",
"(  c #CBB421",
")  c #C0B028",
"_  c #EDC30F",
"`  c #F7C70A",
"'  c #E7C012",
"]  c #EAC110",
"[  c #878C44",
"{  c #849445",
"}  c #879847",
"|  c #8B9A45",
" . c #82964A",
".. c #879848",
"X. c #899344",
"o. c #949E40",
"O. c #124683",
"+. c #0A648C",
"@. c #07638E",
"#. c #1C6C83",
"$. c #186B89",
"%. c #006092",
"&. c #0C6797",
"*. c #186E99",
"=. c #1E7091",
"-. c #1D719B",
";. c #206181",
":. c #247083",
">. c #25728C",
",. c #29748B",
"<. c #2B7483",
"1. c #357981",
"2. c #347986",
"3. c #2D6F91",
"4. c #247394",
"5. c #24759D",
"6. c #29779A",
"7. c #2C799C",
"8. c #2B7792",
"9. c #357A99",
"0. c #2376A1",
"q. c #2778A1",
"w. c #2C7BA3",
"e. c #337FA3",
"r. c #327FA8",
"t. c #427B88",
"y. c #4D718F",
"u. c #3F808C",
"i. c #3C8197",
"p. c #3B85AB",
"a. c #3883A8",
"s. c #4A8384",
"d. c #5B8F89",
"f. c #478596",
"g. c #578B98",
"h. c #56909E",
"j. c #699999",
"k. c #77A199",
"l. c #448AAD",
"z. c #4A89A5",
"x. c #568CA8",
"c. c #4E90AE",
"v. c #5492AC",
"b. c #5390A7",
"n. c #4B8FB2",
"m. c #478CB0",
"M. c #4E90B3",
"N. c #5393B5",
"B. c #5896B4",
"V. c #5C99BA",
"C. c #6497AA",
"Z. c #629DBB",
"A. c #6598B2",
"S. c #6AA2BF",
"D. c #75A3A8",
"F. c #6EA4C1",
"G. c #7BADC6",
"H. c #7EAFC8",
"J. c #72A7C3",
"K. c #86ADAF",
"L. c #83B2CA",
"P. c #8BB6CD",
"I. c #8EB9CF",
"U. c #90B7CC",
"Y. c #95BDD2",
"T. c #99BFD3",
"R. c #9CC1D5",
"E. c #A7C7D9",
"W. c #ACCBDC",
"Q. c #A7C7D8",
"!. c #B4CFDE",
"~. c #B5D1DF",
"^. c #BBD4E2",
"/. c #B7D2E0",
"(. c #C4DAE6",
"). c #CCDFE9",
"_. c #C6DAE5",
"`. c #CEE0E9",
"'. c #D3E3EC",
"]. c #D9E7EF",
"[. c #DAE8EF",
"{. c #DEEAF1",
"}. c #E4EEF3",
"|. c #EAF2F6",
" X c #EEF4F8",
".X c #F2F7F9",
"XX c #F5F9FB",
"oX c #FFFFFF",
/* pixels */
"                                                                                                                                ",
"                                                                                                                                ",
"                                                              d.d.                                                              ",
"                                                            p.m o.p.                                                            ",
"                                                      2.3 6 Q.! ` ~.l ; 8.                                                      ",
"                                                  b.2.}.Y D ] ^ / ^ L J [.1.g.                                                  ",
"                                              K.  g C.` R w.  { 9   w.T ` t.4   D.                                              ",
"                                           .j oX2 7 ` n.      h 8         ] v 9.`.} {                                           ",
"                                      p.s.c c ` 1 ^ Z.        ( (           ` ; ! D V s.h.                                      ",
"                                    v.; h.` f.T 8 ) ;.e i i q 7 C.p i i y , n B Y f.] g.5 f.                                    ",
"                                    C ^.` I.T.k 8 > i i i i r ! ^ u i i i i f g 7 J.  ] I.N                                     ",
"                                    x.J :.s i ) ! P t i i i ( N.W.^ i i i r I ^ / r p *.! U.,.                                  ",
"                                  m.G ] r i u ` ).v.Y = ` I ] 2.B.` v ` : [ i..X] a i i ` G 9.                                  ",
"                                  o..X` i r p ` v.C [ = ` E s ` ` < D ` : : ..B.` = t r / _.k                                   ",
"                                  / R ` p ` / d ] 1 ` ` O $ ` x g ` n O ` ` B ` a D ` f ^ D ^                                   ",
"                                  ..oX .1 ` ^ ` Q I ^ n k.a.        l.j.x ~ D D ` ` ` ;.J oX7                                   ",
"                                  Z s._ [ L ) Y C.  3.V J ! ` I J ` ~ H A 9.  C.D R I F ` z x                                   ",
"                                        S Z   t.U o.X 1 2 C.h d 0 6 f.f.; X k P t.  s.S S.                                      ",
"                                          @ ` x.; . O._ Q F h A A h F / ` X . o x.` -                                           ",
"                                          y.; [ ^ B x.p.a.$ j } ..j 3 q.r.V.V ~ G h y.                                          ",
"                                            * A.q.| ` ` ` ` ` ` ` ` ` ` ` ` D -.z.;                                             ",
"                                            <._ ` ` ` ` ` ` ` ` ` ` ` ` ` ` ` ` _ &                                             ",
"                                        7._ ` ` ` ` P 3 N.I.[.oXoX[.U.n.4 / ` ` ` ` ` >.                                        ",
"                                      ..` ` ` ` + R.oXoXoXoXoXoXoXoXoXoXoXoXT.4 ` ` ` ` I                                       ",
"                                  a.~ ` ` ` $ ].oXoXoXoXoXoXoXoXoXoXoXoXoXoXoXoX`.3 ` ` ` ] q.                                  ",
"                                p.` ` ` ( G.).oXoXoXoXoXoXoXoXoXoXoXoXoXoXoXoXoXoX^.F.Q ` ` ` a.                                ",
"                              q.` ` ` n |.e.` ,.oXoXoXoXoXoXoXoXoXoXoXoXoXoXoXoX3 ` 4.[.} ` ` ` *.                              ",
"                              ^ ` ` N oX$ ` ` ` >.oXoXoXoXoXoXoXoXoXoXoXoXoXoXB ` ` ` 4 XXz ` ` ` Z.                            ",
"                            o.` ` j XXB ` ` ` ` ` >.oXoXoXoXoXoXoXoXoXoXoXXXl ` ` ` ` ` b .X} ` ` P                             ",
"                          4.` ` E |.$ ` ` ` & ` ` ` :.oX.XP.7.1.1.8.G. X.Xj ` ` ` -._ ` ` N [.! ` ` <.                          ",
"                          ` ` ` G.6.` ` ` %.%.$.` ` ` B ` ` ` ` ` ` ` ` K ` ` ` n.oXP._ ` ` 4.S.` ` `                           ",
"                        $ ` ` 3 /.` ` ` %.%.%.%.+.` ` ` ` ` ` ` ` ` ` ` ` ` ` V.oXoXoXB.` ` ` E.N ` ` z                         ",
"                        _ ` ` ).l ` ` & %.%.%.@.z ` ` ` ` I w.L.L.q.^ ` ` ` `  ..XoXoXoX,.` ` n _.` ` `                         ",
"                      7.` ` 3 Y.` ` ~ %.%.%.%.3 ` ` ` ` ` ` B XX^.( ` ` ^ ` ` 6.oXoXoXoXoX/ ` ` L.V ` ` %                       ",
"                      K ` ` P.M ` ` %.%.%.%.+.` ` ] %.%.` ` ` n ~ ` ` ~ E.G.w.oXoXoXoXoXoXl.` ` z P.` ` !                       ",
"                      ` ` E oX_ ` _ %.%.%.%._ ` ` %.%.%.@.` ` ` ` ` Q /.oXoXoXoXoXoXoXoXoXXX^ ` ` |.^ ` `                       ",
"                    N.` ` 3 P.` ` g %.%.%.#.` ` #.%.%.%.%.%.` ` ` ( (.oXoXoXoXoXoXoXoXoXoXoX$ ` ` B.B ` ` 7.                    ",
"                    #.` ` l.#.` ` l.S.%.%.~ ` ` %.%.%.%.%.%.%.` / %.Z.oXoXoXoXoXoXoXoXoXoXoXG.` ` # w.` ` $                     ",
"                    B ` ` P.z ` ` W.oXP.%.` ` c %.%.%.%.%.%.%.%.%.%.%.Z.oXoXoXoXoXoXoXoXoXoX'.` ` o.P.` ` }                     ",
"                    n ` ` '. .` `  XoXoXl.` ` @.%.%.%.%.%.%.%.%.%.%.%.%.Z.oXoXoXoXoXoXoXoXoXoX` ` / W.` ` L                     ",
"                     .` ` |.T ` ` oXoXoX7.` ` %.%.%.%.%.%.` ` ` ` ` $ %.%.Z.oXoXoXoXoXoXoXoXoX^ ` ! (.` ` /                     ",
"                     .` ` |.K ` ` .XoXoX9.` ` %.%.%.%.%.%.` ` ` ` ` $ %.%.%.Z.oXoXoXoXoXoXoXoX^ ` ! _.` ` /                     ",
"                    n ` ` ).j ` ` }.oXoXc.` ` :.%.%.%.%.%.` ` ( v v #.%.%.%.%.Z.oXoXoXoXoXoXoX` ` P W.` ` L                     ",
"                    N ` ` P.B ` ` T.oXoXW.` ` | XX%.%.%.%.` ` I %.%.%.%.%.%.%.%.Z.oXoXoXoXoX^.` ` ..P.` ` ..                    ",
"                    =.` ` a.q.` ` e.oXoXoXQ ` ` W.XX%.%.@.` ` ^ / ) %.%.%.%.%.%.%.Z.oXoXoXoXV.` ` ,.5.` ` %                     ",
"                    0.` ` N W.` `  .oXoXoX,.` ` l oXoX%.%.` ` ` ` ` %.%.%.%.%.%.%.%.Z.oXoXoXg ` ` J.z ` ` 5.                    ",
"                      ` ` ! oX/ ` ` [.oXoX|.' ` ` 4.oXoX&.` ` ` ` ` %.%.%.%.%.%.%.%.%.Z.oX}.` ` ] .X] ` `                       ",
"                      } ` ` G.>.` ` <.oXoXoXl.` ` ` 8.oXXX` ` ~ %.%.%.%.%.+.%.%.%.%.%.%.Z.>.` ` $ G.` ` Y                       ",
"                      -.` ` g {.` ` _ (.oXoXoX:.` ` ` | J.` ` ~ %.%.%.%.j ` ` %.%.%.%.%.%._ ` ` /.g ` ` =.                      ",
"                        ^ ` ` ^.,.` ` b oXoXoXoX>.` ` ` ` ` ` W #.4 / ` ` ` ` @ %.%.%.%.l ` ` 3 W.` ` `                         ",
"                        >.` ` B XX/ _ F.oXoXoXoXoXZ./ ` ` ` ` ` ` ` ` ` ` Q %.%.%.%.%.%.@.` W {.x ` ` 3                         ",
"                          ' ` ` V.H.U.oXoXoXoXoXoXoXoXm. .` ` ` ` ` ` | %.%.%.%.%.%.%.%.%.@.M.m.` ` `                           ",
"                          w.` ` ' '.oXoXoXoXoXoXoXoXoXoXoX/ ` ~ L.W.Q.%.%.%.%.%.%.%.%.%.%.&.).] ` ` 4.                          ",
"                            B ` ` K .XoXoXoXoXoXoXoXoXoXoX/ ` ~ oXoXoX_.%.%.%.%.%.%.%.%.%.|.I ` ` |                             ",
"                              ) ` ` } |.oXoXoXoXoXoXoXoXoX( ` ~ oXoXoXoX].%.%.%.%.%.%.&.|.| ` ` ~                               ",
"                                W ` ` I '.oXoXoXoXoXoXoXoX/ ` ~ oXoXoXoXoX|.%.%.%.%.n.^.Y ` ` ` N.                              ",
"                                L.~ ` ` ^ M.oXoXoXoXoXoXoX~.~.~.oXoXoXoXoXoX X%.%.}.l.] ` ` ] V.                                ",
"                                    Y ` ` ` z /.oXoXoXoXoXoXoXoXoXoXoXoXoXoXoXoXW.l ` ` ` ( n.                                  ",
"                                      3 ` ` ` ` z G.oXoXoXoXoXoXoXoXoXoXoXoXJ.x ` ` ` ` B                                       ",
"                                        m.L ` ` ` ` ' n 5.F.T.)._.T.F.5.n ^ ` ` ` ` ( q.                                        ",
"                                            a.L ` ` ` ` ` ` ` ` ` ` ` ` ` ` ` ` / 6.                                            ",
"                                                N.% / ` ` ` ` ` ` ` ` ` ` E + a.                                                ",
"                                                        r.a.=.$ $ >.a.w.                                                        ",
"                                                                                                                                "
};
