/* XPM */
static char *_351fc02444e406a9ce93910e48a9f88[] = {
/* columns rows colors chars-per-pixel */
"64 64 222 2 ",
"   c #040303",
".  c #0A0707",
"X  c #0B0906",
"o  c #0D0C0A",
"O  c #120A07",
"+  c #120E0C",
"@  c #14120E",
"#  c #18110E",
"$  c #151312",
"%  c #1B1613",
"&  c #1C1915",
"*  c #191718",
"=  c #1E1B19",
"-  c #221713",
";  c #211916",
":  c #231D1A",
">  c #281E1C",
",  c #26211D",
"<  c #2A221E",
"1  c #31271E",
"2  c #211F20",
"3  c #242221",
"4  c #2B2522",
"5  c #2D2925",
"6  c #2E2A29",
"7  c #312624",
"8  c #332A25",
"9  c #392D25",
"0  c #332D2A",
"q  c #392F2B",
"w  c #35312D",
"e  c #3B322C",
"r  c #3C3431",
"t  c #3A3735",
"y  c #3D3935",
"u  c #42342D",
"i  c #42382F",
"p  c #413633",
"a  c #443A35",
"s  c #4A3C34",
"d  c #443C3A",
"f  c #4A3E3A",
"g  c #48413A",
"h  c #4C423D",
"j  c #53443D",
"k  c #56493F",
"l  c #453F41",
"z  c #4C4542",
"x  c #4D4946",
"c  c #524642",
"v  c #544A45",
"b  c #5A4C45",
"n  c #554D4A",
"m  c #5A4E4A",
"M  c #5D5046",
"N  c #55524D",
"B  c #5C524D",
"V  c #5C5452",
"C  c #5C5855",
"Z  c #624E43",
"A  c #63544D",
"S  c #68574B",
"D  c #6A564D",
"F  c #65584E",
"G  c #625652",
"H  c #6A5752",
"J  c #655A53",
"K  c #6B5C54",
"L  c #655C5A",
"P  c #6B5E5B",
"I  c #725E54",
"U  c #725F59",
"Y  c #6C6057",
"T  c #6D615B",
"R  c #766357",
"E  c #73645C",
"W  c #7A665C",
"Q  c #7D695E",
"!  c #6D6562",
"~  c #696768",
"^  c #726561",
"/  c #786761",
"(  c #746964",
")  c #7B6C64",
"_  c #756D69",
"`  c #7C6E6A",
"'  c #797069",
"]  c #7D716B",
"[  c #767270",
"{  c #7D7471",
"}  c #826A5E",
"|  c #826E64",
" . c #826F69",
".. c #847166",
"X. c #84736C",
"o. c #88756A",
"O. c #8A756C",
"+. c #8C796D",
"@. c #92776C",
"#. c #927A6D",
"$. c #837672",
"%. c #8A7770",
"&. c #847973",
"*. c #8C7B74",
"=. c #867C7A",
"-. c #8C7E7A",
";. c #927D74",
":. c #9A7E74",
">. c #917F78",
",. c #87817D",
"<. c #8D817B",
"1. c #948076",
"2. c #998276",
"3. c #94837C",
"4. c #9A857C",
"5. c #96887F",
"6. c #9D897E",
"7. c #A08073",
"8. c #A2867B",
"9. c #A28A7D",
"0. c #8D8583",
"q. c #938582",
"w. c #9B8780",
"e. c #958984",
"r. c #9C8B83",
"t. c #938D89",
"y. c #9B8E8A",
"u. c #96918F",
"i. c #9D918C",
"p. c #9A9392",
"a. c #A28D84",
"s. c #AA8E82",
"d. c #A18F88",
"f. c #A59086",
"g. c #AA9187",
"h. c #A4938B",
"j. c #AA958B",
"k. c #A4988F",
"l. c #AD998E",
"z. c #B2958C",
"x. c #B29A8E",
"c. c #A39591",
"v. c #AA9790",
"b. c #A69A93",
"n. c #AC9B93",
"m. c #A79D9B",
"M. c #AC9F9B",
"N. c #B39D93",
"B. c #BA9D93",
"V. c #B29F98",
"C. c #AEA097",
"Z. c #AEA19B",
"A. c #B5A196",
"S. c #BBA296",
"D. c #B4A39B",
"F. c #BBA59B",
"G. c #B6A89F",
"H. c #BDA99D",
"J. c #AEA4A1",
"K. c #AFA9A9",
"L. c #B4A5A2",
"P. c #BAA7A0",
"I. c #B6A9A2",
"U. c #BCAAA3",
"Y. c #B5ACAA",
"T. c #BBADAA",
"R. c #BEB0A7",
"E. c #BEB1AC",
"W. c #BEB3B1",
"Q. c #C1A59B",
"!. c #C2AA9E",
"~. c #C6A89C",
"^. c #C2ADA3",
"/. c #C4ADA6",
"(. c #C5B0A6",
"). c #CAB2A6",
"_. c #C4B3AB",
"`. c #CAB5AC",
"'. c #CCB9AE",
"]. c #D3B8AD",
"[. c #C4B6B2",
"{. c #C6B9B2",
"}. c #C6B9B6",
"|. c #CCBBB3",
" X c #CBBDB9",
".X c #D2BEB5",
"XX c #D2BFB8",
"oX c #CEC1BB",
"OX c #D4C1B6",
"+X c #D4C3BC",
"@X c #D9C6BD",
"#X c #DBC9BF",
"$X c #E1CABE",
"%X c #D4C6C2",
"&X c #D9C7C0",
"*X c #D7C9C3",
"=X c #DCCBC3",
"-X c #D0C8C8",
";X c #D5CAC8",
":X c #DCCECA",
">X c #DED0CC",
",X c #E2CEC5",
"<X c #E2CFC9",
"1X c #E4D3CC",
"2X c #E8D7CE",
"3X c #E4D5D2",
"4X c #E6D9D3",
"5X c #E7D9D5",
"6X c #EBDBD4",
"7X c #EBDDDA",
"8X c #F0DFD8",
"9X c #E6E1DB",
"0X c #EEE2DC",
"qX c #F1E3DC",
"wX c #F2E8DF",
"eX c #EEE5E1",
"rX c #F1E5E2",
"tX c #F3EAE5",
"yX c #F5ECE9",
"uX c #F8EEEC",
"iX c #F7F1ED",
"pX c #FBF9F5",
/* pixels */
"*.( r < $ @ 4 a e b j s 0 7 & s A G b h ) &.r.f.3.e h h j r v m = : r n 5 u J v r T = ) r.U | W Q J g c A a s v b j c g S i h h ",
"e.-X;XY.K.}.u.m.D.k.E.D.X.b.Z.Z.3.E B X.A E E J ( +.e _ r.Y.:Xi.V r z z P C { e.d 0 d B ` $._ V F 4 w z j z 0 6 w 0 6 r v z n =.",
"7X0X4X:X3XuXtXqX7X3._._.D.w.(.6.!.s.e o.r.h.6.X.<...n .X{.v.@X2X XI.=X2X+X+X X+X+XE U.yX7X=XI._.%Xn n.^.I.T. XY.D.i.C.J i.T.}. X",
"%X3X3X7X*X X0XtXpXM._.F.U.o.a.6.2.'.r U ..&.6.M h K V 7X4X@X|.6X7X_.6X8XqX6X1X@X1X) D.=X5XI. X3.[.^ B.!.(.=XoX>X+X5.( T |. XL.;X",
"oX:X+X:X1X;X{.[.=X$.4.Q.d.j.F.F.l.4.D } 8.4.8.).S.#.B 6X1X1X*X=XqXD.=X<X6X6X1X2X6X&.N.l.:X_.XXV.j.P z.@X@X@X%X+Xr.T ) ) qX4X*X#X",
"2X6X4X*X=X*X+X+X[.v T D.6.N.4.a.s.;.> - > - < p j e ; ;.D.=X_.<X#XF.*X&X|._._._.|.B d.l.F.^.&X2X`.j a.Q.(.+X^.F.(.U.o./ 1X<X>X2X",
"F m q v 0 0 a E ) B y J m r 4 O @ & = 4 e : a w 8 y : h a B x ) v f / J G e h H ) v h ) f 8 / 7 c p n G Z K s R 5.` 9 @ ) w.`.T.",
"x B G H v ) j.*.) B 7 m.+X+X{.7 ! &.v B K T / L ( K n n g n g v ` ;.w.) G r ,.U.6.3.w.=.w.J ! y.J.e.E.tX,X[.b K i.b.=.&.X.^ h A ",
"4.3.d.j.3.4.w...J h J I.n.P.|.h B D.j.n.D.j.a.a.4.%.n / 1.w.5.r.d.w.K m d ^ P.|.XXJ.q.N U ` G I.I.-.h.^.N.P.I.q r.|._.+XC.,.a p ",
"N.9.x.z.f.o.g.z.*.a f +Xh.D.D.c h '.U..XH.v.s.g.f.*.0 N.d.x.g.a.2.V.a.;.0 -.[.>././.>.c.$.$.H [.T.` / 2.#.2.v.r 3.1.x.6.n.5.p a ",
"x.d.z.Q.f.d.N.Q.N.h p 3.r.F.| e e d.f.].F.a./.g.F.%.e 3.z.B.B.l.a.s.Q.3.6 G r.f.w.V.L.V.3.h.v { e.^ ) D ;.a.y.s 4.g.S.B.%.;.0 P ",
").!.g..X`.&X'.F.o.> . % w b j u J j.v.v.a.3.~.].(.3., O.!.B.|.S.F.'.`.B.s h b.D.X.r.c.L.-.^ 0 4 f c O.R f | T 7 r.N.).D.D.V.p h.",
"7 > 5 9 9 , 0 f d g y ] $.x B T r : 7 u 7 b O.F.;.P @ 9 u j U H E j.X.K 4 h p p r r a p 0 % o   o   # : @ @ X , S R 6.4.w.H % 4 ",
"<.X.o.) ) 9.*.>.y.l.v X.r.` &.l.V.E ! C ! J T T =.3.E *.>.5.U.L.P ` K -.k.N.>X+XM.P.T.P c.p.J ^ P G L L B v V o % J z h n / $.&.",
"g.3.4.+.b H *.E W *.M ] j.$.e E X.3...f.*.y.B 0 U $.^ ;.3.m ) 5.x b *.o.Q ) x.) E n.v.f ) 5. .) b.H.h.P.=.^ q.m 6 d.w.%.w.f.P.T.",
"J Q !.A.x.A..XOX^.I.n X.*.f.B H W 1.B W K n.) s n a a a B w 7 5 0 H R ;.1.K E 2.| U 3.V ` n.O.a P | w./ 3.X.h.F 0 J ) T %.;.h E ",
"h b s.} Q 2.Q.~.(.a.7 <.y.l.f E | j 9 h Y Z s 2 r y a a < h 0 d g o.Y Q.x.x.S.].#XOX^.v X.*.f.m J Q ;.b | U n.` p j a a p v e s ",
"a e g g a n ) b h , 3 B g q S a e w 6 7 r 6 , r w r K V 2 , % & & h b 1.Q I #.x.N.j...: *.d.d.p F K u 4 e b a 7 & i r r a > g 4 ",
"B q.T. X&.Y b.3.) ) T K T r *.A E E ! E &.^ E OX(.C.6.(._.`.Y J J r B g v f M ` B c 7 q B e 4 U z a a w r v e 0 N a g T T 4 5 r ",
"r.*X>X@XR.$.n.6.5.f.y.*.] 3 ) e.h.h.T.h.h.T j '.H.=XOX(.2XOXx 3.5.A.:X X+X&.Y k.q.] =.P T / r -.F ] X.$.) O.^ E .X).R.l.'.;X+X3.",
"k.1X6X9X;X&.+.*.h.h.k.6.^ * *._.G.n.b.E l.6.g |.).G.A.(.'.H.a h.4.(._.|._.E.<.A.e.5.h.j.<.) < ..h.j.v.U.k.n.W h ].H.+XOX_.,X`.D.",
"3.#X1X=X_.h B T ) i.l.i.-.o E v.D.N.h.G &.l.h g.1.6.l.o.+.+.< l.g.l.N.6.z.D.a.3.3.v.f.n.-.E % ..D.M.v.v.F y.w.g |.'.D.A.F._.n.v.",
"+ % & o X         - 5 , % @ + z z e w w z h @ : @ % 1 @ , & = = & @ #   o < u b b E E %.v n = h ) f.v.r.K ;.j.a 9...#.9.R } | | ",
"[ ,.,.t.p.5.,.&.U.!.3.  L t._ T x ^ x N T J E ^ ~ { ] ] T U.^ c.i.e.) j w d 6 t 4 $ + + $   . o , 7 : : : 0 r @ #   & , # : 4 w ",
"=XeX>X0X7X,X=X`.9.8.s.% |.2X#X@X5X1X_.{.|.n.oX4X=XU.k.<.J [._ f.&.<.B 4 t P M.I.P.e.2 V v N $.=.<.E <.~ [ ,.[ X.<.q.<.e.X.T {.R.",
"6X2X#X!.0X0X6X,XB.s.F.b .X`.,X2XtXwXwX=XOX+.2X+X;X+Xr.$.J n.) n.k.J d y.b.{.P.V.U.r.r r.$.d.#X+X+X9X2X`.).(.h.%X1X*X_.h.3.J _.1X",
"N.a.o.Q 2.f.n.(.=X XP.> @XOX#X`.;.n.*X0X`.<.,X!.N.j.l.G.K M.o.1.r.4.b `._.%XU./.[.h.z v.w.n.U.,X2X9X2XOX>X:X1.2X*X+XOX4.&.J C.f.",
"U.f.j.M.d.@XT./.`.H.F.> `.,X.X*XOX1X,X.XA.b ;.D o.F.).6.g E f.f.*.Q 8 U.N.V..X%X.XM.d r.V.F.|.=X'.!.:X|.=X!.O.+Xx.x.h.n.(.F 6.'.",
"=Xx.(._.N.|._.h.6.o.o.9 Z A.D.).U.U.N.l.6.9 - 7 # , >   , b +.j 9 $ O J J q b 3.P r : a S %.n.^.OX1X#Xn./.l.b ..D | N.^.` g W U.",
"r 0 g ' F a : 3 < X @ = + & g f.d 5 6 > 1 w , w   % y e d x / =.{ n n x n y t l t d d 6 r & 0 P 5.+.&.k d B 9 @ - O O +   - k S ",
"{ ] r.b.` g &.y.$.3.k.G.|.k.i.y./._.{.oXi.Y E.E.Y.c.4._.M.o.z.<.[.c.[.:XeX7Xp.$.h.P m.] c.{ n z Y z z N h 6 4 $ %   o d g N J E ",
"i.<._.i.e Y Z.i.D.R.oX_.6.X.g n I. X,X,X3.l.+X1XOX8X_.F.v.| B.$.c.^ ,.J y.oX-.z B T.1X[.{.0.y V y T Y _ ( e.( n J ) J J l.k.' Z.",
"! &.oXR.x 4 C { r.OX_._ A D 2.U f.*X#.8.R l.x.s.8./..XA.'.} g.B ^ f @ , { [.q.T v n.L.^.v.G ;.;.-.F.y.G $.H ) T c / ^ j y.5.E n.",
"Z.X.<.i.y @ & n <.e.3.w.;.8 E B ..;.F K R #.9.g.B.F..XU._.I | r | 8 w *.B *XU.n.w.V.V.U.` # :. .` *.$.y 7 > ; r . , d F +.j.L t.",
"B i n g , X o : w n w & : . 9 j e 7 & o   S 6.S.B.F.`.n...4 4 @ p , 0 , & 0 E c v a.) #./ % O.O.` ;.P ! ^ 9 b f o @ b k.S.R.E <.",
"3 x [ t.x C N n ! ) c.-.=.X.M.i.W.F.4.*.E B ' b b F J d ] $.i.~ w * 3 $ 4 r = C a e > v c p 6 $ 4 4 p h H d b 6 : y ` D.3.T 0 0 ",
">XtXeX9X5XiXyXeX4Xm._.+XU.d.|.@XS.F.R 1.r.4.G.i.e.h.r.&.|.N.}.3X>X&._.n.{.{.{.oX}.y.$.{.;X:XW.M.M.u.q w.j.y.0.X.` { ^ E h 5.t.W.",
"%X>XeX1X;X+XtXtXpX;XD._.U.d.;.N.;.'.) p 1.o.6.W h j Y r.1X=X`.1X7X X=X6X0X2X2X=X+X_.^ /.tX5Xr._.L.%Xc !.F.XX_.tX3XE.r.5.<.|.D.1X",
">X%X;X;X3X X|.oX+X[.+.F.N.1.g.z.g.4.| I 7.9.1.!.F.f.) _.6X1X=X+X6X+X|.6X2XqX2X6X3X:XP `.%X|.D.T.>.V.H ].,X.X%X3X X( m U c.3X:X:X",
":X3X0X4X7X5X*XoX+XT.v N.^.D.'.F.F.g.K s u j s Z R R b W F.1X1X=X:X|.'.*X#X+X<X'.=X'.K V.d.XX+X7XXXw.J ).).=X.XP.U.D.j.) _.6X:X4X",
"y.e._ B a g F ) <.X.y T ) g > , 1 7 % + % $ + 6 $ 5 # r j A / 1.g.R 4.OXn.U j K &.) - ) *.S O.3.B / U R Z O.K V r.D.J s H j.*X.X",
",.J z x N ^ J b.oX>X3X7XD.i.C h F  ...a.c.H P m L X._ d ! ! ` ..B x v T $.3.d.4.3.w.k.N.b.J d { q.0.(.E.oXi.  b.D.i.$.4 e f h F ",
"=X>Xr.C.5.i.j W.+XoXW.(.'.).( #X$X~.B.$XF.N M.v.D.) ) ) _.6X6X/.2X*Xe.f.|.'.|.l.x.s.:.6.+.T  XqX6X1X&X+X`.=Xy j.q.P q._ n $.` = ",
"{.6X2X_.=XR., F k.k.] h.1X1Xh #.s.:.z.].1.w j.) F. .O.>._ +X#X`..X+XX.J j.N.'.f.F.Q.d.z.b h H.=X6X&X#XF.2.o.P i.y.<._ ^ $.I.L.0 ",
"f.U.A.U.`.k.w &.b.b.Y W @X.X, O.x.g.U..X4.y D.+.a.| ..w.o.].~.~.`.,XN.E a.N.s.r.s.].`.).d 0 g._./.'.^.9.c | 4 -.y.q.^ $.A -.e.: ",
"E ..4.4.o.6.e H.A.l.b.6.j.n.h I 9.S.g.B.j.i C.` *.a.;.h.D x.~.S.B.@X| b q p v h W f.F.4.p w o.e.| K 2.#.o.j ; -.$.^ _ { ` ` e.4 ",
"4 7 e B k e x h M 3.6.S s Z h f f 1 : 9 p T h v b Q K 4 8 S #.R :.9.A J 0 0 d z r J _ C z * @ 9 %     . $ $ G 0 : = : d d 5 0 : ",
"m.Y.u.t.3.t.D.w ( i.,.n d H F ! j.+Xe.^ L h C T m C _ &.g B B n E e.c P J J ) L { E.J.D.2.X.$._ m _ -.b ) q.b.L.T.Z.u.! =.=.0.[ ",
"7XwXpXuXrXuX=X9 n.OX6X#XS.@XD.+.#X=XU.<.&.F n.W. X:X{.=X,.iXrXtXuX}.$.c.h.m.N 0 A L.D.d.} 9.A.@X&X+X^ r *.E G n *.n.r.3._ P y.P ",
"qXwXyXiXrXrX;Xf _.`.Q.S.OX].6.r.+X+X:X:XG.g T Z.;X3X0X X! pXtXrXuXJ.v.|.L.n.w.L : V V.a.W 3.a.N.4.D.w J r.*.^ 3.*.%. .*.P P M.$.",
":X7X7XtX3X=X{.a f.D.x.2.B.!.;.3.#X'.OXA.( w Z.3.n.1X<Xb.^ uXtX4X3XJ.V.h./.V.d.` $ m r.n.d.g.f.].F.V.a _ y.*.>.r.d.n.w.q.*.*.j.` ",
"=X X4X=X2X{.` c e.6.s.x.8.8.D 0 <.<.&.( g + *.j.l.n.).1.t yX5X4X%X{ V.v.U.P.h.r.X z o.;.f.+.4.^.`.F.A ` D.w.w.v.P.D.n.3.W / G B ",
"0 : a % 5 . . & $ - u k s 9 X @ b 5 6 J ` % & D 0 i u < , 3.c B 4 . r % - > . O o 4 o $ + % : r 4 < = 4 V .. ./ ;.d.q.0 y 5 3 $ ",
"4 6 z 0 6 a v E ) P u v n _ y   * 4 6 0 0 J =.0 , : N h r z $ % 7 0 E x l l a p f : = 5 [ [ P z G m J =.! n b K ! | ) l.w.j ) g ",
"n ^ / E m $.n. .J z a [.&X'._.: <.3.F ^ / / 3.T v 0 d c v G c B ..d.;.^ l v J. Xd.%.^ p v P E y.L.y.XXwX2X|.E L [.=X}.V.h.t.H v ",
"r.w.j.g.a.8.d.%.) f _ U.h.U.'.w _ I.U.`.A.j.4.8.j.;.m *.2.j.w.5.a.3.P J a -.V._.%XM.=.` ^ ` ! {.{.0.y.j.:.j.f.t j.P.U.[.M.$.q v ",
"A.6.B.x.f.o.s.N.#.4 V /.h.L.f.a M F.D.+XD.A.z.8.B...g A.g.B.z.4.;.N.g.| $ h.[.*./.I.3.n.$.3.N E.L.U ) :.4.j.q.m *.w.s.4.f.w., B ",
"x.N.x.H.d.U.^.^.Q.r d X.w.F.H 8 h f.N.H.N.a.`.A.U.' s 1.N.x.B.3.A.x.^.l., P q.j.*.d.I.P.n.n.r ) -.$.^ b @.a.$.f 4.g.Q.N.*.*.> 3.",
"S.s.6.).Q.!.j.+.b +   o : s p B T a.6.l.1.2.!.].).^ , 1.B.S..X`.#X.XQ.6., h 3.y._ c.i.j.v.d.= % : w  .J 1 2.( a N.B.].H.`.n.8 N.",
"& % ; $ & : x ^ P G T a a x N T d + @ & , w B ) J v @ 8 < < 9 8 < a H r y C 0 e g 0 4 e % = 0 % * = = . $ > w : e f U K J 0 O o ",
"r.f.A.*.) E k.<.X.P.^.|.3.X.*.T *.5 w p.J.u.D.;X-XZ.n ..f.<.( { _ 3.p.J [.7X9X3XiX! L $.V._ *.w.3.A e L X.3.-.b P ] d G x =.0.0.",
"e.&.n.*.z d C =.c.2X.X%.e.J ` ' T.=.q.>X3X1X_.U.f.) *.f.*.N.L m F E V.P.T.+X_.`.(.i.h T q.( _.:XD.D.X.4.) K =.T.n.n.b.] q.c.Y. X",
"i.r.*.+.) 0 h y...*. .J ) m M Y :XP.+X(.n.D.F./.F.J  .f.o.;.) K 0 / U.j.'.d.d.F.y.X.w h t.y.`.^./ *.^ T z g b.G.j.r...J c r b.<.",
"&.f.( T ) e A *.4.S P *.J c h F j.N.6.x.i.L.'./.].J X.*.K ^ ..^ v F -.4...3.I._.{ 3.s H $.W U F F J m V B c J X.) F ' / ..e *.T "
};
