/* XPM */
static char *_582629185841[] = {
/* columns rows colors chars-per-pixel */
"64 64 108 2 ",
"   c #2B2E2D",
".  c #2E302E",
"X  c #31322E",
"o  c #2C2F30",
"O  c #2E3130",
"+  c #313333",
"@  c #363836",
"#  c #383936",
"$  c #373A39",
"%  c #393B3A",
"&  c #3E403F",
"*  c #44463F",
"=  c #353D43",
"-  c #393F46",
";  c #374146",
":  c #3E4240",
">  c #3B434C",
",  c #3D4752",
"<  c #3E4954",
"1  c #3F4B58",
"2  c #424543",
"3  c #464A46",
"4  c #484843",
"5  c #444748",
"6  c #474A48",
"7  c #4B4B4B",
"8  c #404B56",
"9  c #414D5B",
"0  c #465157",
"q  c #46525C",
"w  c #515354",
"e  c #575A5B",
"r  c #5A5D5E",
"t  c #445263",
"y  c #4B5A66",
"u  c #475769",
"i  c #485769",
"p  c #4A5A6C",
"a  c #4D5E73",
"s  c #5F6263",
"d  c #5C646C",
"f  c #4E6076",
"g  c #516271",
"h  c #546579",
"j  c #5C6B7D",
"k  c #626566",
"l  c #646768",
"z  c #6A6C6E",
"x  c #6C6F70",
"c  c #69757D",
"v  c #737779",
"b  c #767879",
"n  c #7C7E7F",
"m  c #737575",
"M  c #5E6E80",
"N  c #5D7285",
"B  c #6B7680",
"V  c #6E7A83",
"C  c #6B7989",
"Z  c #717983",
"A  c #727F88",
"S  c #7F8283",
"D  c #758291",
"F  c #7A8694",
"G  c #7C8B97",
"H  c #7E8D9B",
"J  c #7797B6",
"K  c #7798B7",
"L  c #7898B7",
"P  c #7B9CBD",
"I  c #7C9EC0",
"U  c #7EA1C2",
"Y  c #82868B",
"T  c #87898B",
"R  c #8B8D8E",
"E  c #808F9D",
"W  c #80909E",
"Q  c #8C9399",
"!  c #949798",
"~  c #9B9D9E",
"^  c #8595A4",
"/  c #8C95A0",
"(  c #9C9EA0",
")  c #93A7BB",
"_  c #94A9BC",
"`  c #A4A6A8",
"'  c #ABADAF",
"]  c #A4AAB0",
"[  c #AEB0B2",
"{  c #B2B4B6",
"}  c #B4B6B8",
"|  c #83A4C5",
" . c #81A5C9",
".. c #84AACF",
"X. c #84AAD0",
"o. c #9FBFDE",
"O. c #BDBFC1",
"+. c #A1BFDC",
"@. c #91BBE4",
"#. c #9EBFE1",
"$. c #A1C0DF",
"%. c #9FC1E1",
"&. c #A1C2E3",
"*. c #ACCCEA",
"=. c #B7D3ED",
"-. c #ECF4FA",
";. c #F0F6FB",
":. c #FAFDFE",
/* pixels */
"6 & # % % % % % # % % % % % # $ X # # % # & # # # @ @ @ X & & & X & & X & & & X & @ & & @ @ & @ & @ @ # % % % % % % # # @ # $ $ ",
"6 + X . o o + + o o o + + X O o     X X     .   . .                   X         X .         .         .     o     . .   . .   . ",
"* + .   X X X .       o O X   .         .   .               . .   X           X . . . X     .                         . .       ",
"& +               X X   . X             . . .               .     X           X . .   . .     .   . . .                 . .   . ",
": + .   .     o X   X   O O .                                   . X   .   . X . . . . . O . . O . . .       .     o .           ",
"2 O     o .   .           .                                     . . . . .   . . . . . . . . . . . . X .   . o         X   .     ",
"2 O .     +   .                                                   . . . .       . .   O O . . . . . .         + +   o   X       ",
"6 O                                                                   X . .         . . . . . O   . .     . o O o         O     ",
"*                                                     . o o             o o o   . . . O         o o o O     o .       o         ",
"3                       o .                             o           .       o     o . . o o   O . o     O O .     o             ",
"3 .         . .       . .                                 o .               .     . o   . o o         o   O O     o   o         ",
"3 .         . . . . . .                             . +       .         .     .             o o . O O     o o O O o   o .       ",
"7 .   . . . . . O O O O .                     o         o o               O .     o       o o     . .   o o o o o o o o         ",
"3 > t t t t t t t t t t q t t t t u t t t t t t q t t t t t t t t 1 t t t t t t t u t t t t t t t t t t t t t t t t t t t t > o ",
"3 < f f f f f f f f f f f f f f f f a a a a f f f f g f f f f f f f f f f f f f f f f f f f f f f f f f f f f f a f f f f a ,   ",
"3 8 f f f f f f f f f f f f f f f f f h a a f f f f f f f f f f f f f f f f f f f f f f f f f f f f f f f f f f f f f f f f ,   ",
": < f f f f f f f f f f f f f f f f f f f f f f f f f f f f f f f f a a f f f f f a a a f a f f f f f f a a a f f f f f f f 8   ",
"6 , u p f f f u u f f f u u u u u u u t u u u u i y i i i i f f f f i u i i i i u u u u p u y u u u a f h a a a p a f f f i >   ",
"2 @   ; f f 1 . o f f f                                     a a a a             O o     o       . . Q ] / Y Z S Y m f f p X   . ",
"2 O . ; f f q . o f f f       o                             a a a a   o       . o         o .     Y d f g = .       f f p       ",
"3 + O = f h 9 O   f f f               .                     f g a a       X .     o               O.9 f f =     o o a a p       ",
"* + p J U U U K K U U U K K K K J J J J J J J J L P L L L L  . . . .L J P L J L K K K K K K L J | | U  . .P J K K L X.U I i   X ",
"* 0 @.@.@.@.*.-.:.:.:.:.:.:.;.:.:.:.:.:.:.:.;.:.:.:.:.:.:.:.:.:.:.:.:.:.:.:.:.:.:.:.:.:.:.:.:.:.:.:.:.:.:.:.:.;.-.*.@.@.@.@.8 X ",
"2 N =.-.:.:.:.:.:.;.:.:.:.:.:.:.:.:.:.:.:.:.:.:.:.:.:.:.:.:.:.:.:.:.:.:.:.:.:.:.:.:.:.:.:.:.:.:.:.:.:.:.:.:.:.:.:.:.:.:.-.=.M   ",
"* q @.@.@.@.*.-.:.:.:.:.:.:.:.:.:.:.:.:.:.:.:.:.:.:.:.:.:.:.:.:.:.:.:.:.:.:.:.:.:.:.:.:.:.:.:.:.:.:.:.:.:.:.:.:.-.*.@.@.@.@.t   ",
"3 . f P X.X.U U U X.X.U U U U U I I I U I U U U U U U U I I X.X.X.X.| | I U P | U U U U U U U U U U  .X.X.U U U I I X.X.U h     ",
"6 . . ; f f <     f h f             . . .   .               a a g a   o                   . . .   o q f f =     o r a f u       ",
"2 .   - f f <     f f f             . .                 o o a a a a   o       % x ~ O.} ' R n m z l Z F F c m T ` x a f u       ",
"2 +   ; f f 1     a f f             .       .         . .   g h a a . .   5 [ ! e $     O 2 7 w r s V D D d w 3 + . f f u O     ",
"2 . E $.&.&.%.o.%.%.%.%.%.%.%.%.#.#.#.#.#.#.$.#.#.o.$.$.%.%.&.&.&.&.&.&.o.o.%.#.$.&.&.o.%.%.%.o.%.%.&.&.%.%.#.#.%.#. . . .H     ",
"6 V @.@.@.@.*.-.:.:.:.:.:.:.:.:.:.:.:.:.:.:.:.:.:.:.:.:.:.:.:.:.:.:.:.:.:.:.:.:.:.:.:.:.:.:.:.:.:.:.:.:.;.:.:.:.-.*.@.@.@.@.c   ",
"2 _ =.;.:.:.:.:.:.;.:.:.:.:.:.:.:.:.:.:.:.:.:.:.:.:.:.:.:.:.:.:.:.:.:.:.:.:.:.:.:.:.:.:.:.:.:.:.:.:.:.:.:.:.:.:.:.:.:.:.-.*.)   ",
"; C @.@.@.@.*.-.:.:.:.:.:.;.:.:.;.:.:.:.:.:.:.:.:.:.:.:.:.:.:.:.:.:.:.:.:.:.:.:.:.:.:.:.:.:.:.:.:.:.;.:.;.:.:.;.-.*.&.%.%.@.N   ",
"3 + H %.%.%.%.%.%.%.%.%.%.%.%.%.%.%.o.o.%.o.%.o.$.#.$.$.&.&.&.&.&.&.$.$.$.$.$.$.o.o.%.#.#.#.%.%.#.%.%.%.%.%.%.%.%.%.U U U J     ",
"3 O   ; f f 1 o   f f f O               O   o     . X .     a f a a .                       O   O   t f f =       O f f p     o ",
"6 O   ; f f 9 o   a f f       o   .       o     . .   .     f f a a               o o o   .       O 1 f f =       O f f p       ",
"6 O . ; f f 1 O   f f f         o   O         . . .     .   a f a a   .           O O o     o       9 f f =       O f f p . .   ",
"3 O ^ &.%.%.%.%.%.%.%.%.%.%.%.%.%.%.%.%.&.&.&.%.#.#.#.$.$.&.&.%.&.%.&.&.#.#.%.@.%.%.%.%.%.%.#.o.%.%.%.%.%.%.%.%.%.%.....U L     ",
"3 D @.@.@.@.*.-.:.:.:.:.:.:.;.:.:.:.:.:.:.:.:.:.:.:.:.:.:.:.:.:.:.:.:.:.:.:.:.:.:.:.:.:.:.:.:.:.:.:.:.:.:.;.:.:.-.*.@.@.@.@.B   ",
"& _ =.;.:.:.;.:.:.:.;.:.:.:.:.:.:.:.:.:.:.:.:.:.:.:.:.:.:.:.:.:.:.:.:.:.:.:.:.:.:.:.:.:.:.:.:.:.:.:.:.:.:.:.:.:.:.:.:.;.-.=.)   ",
"* c @.@.@.@.*.-.:.:.:.:.:.:.:.:.:.:.:.:.:.:.:.:.:.:.:.:.:.:.:.:.:.:.:.:.:.:.:.:.:.:.:.:.:.:.:.:.:.:.:.:.:.:.:.:.-.*.%.@.@.@.C   ",
"3 + G #.&.&.&.#.#.%.%.%.o.o.#.#.o.o.%.%.#.#.o.#.%.%.#.o.o.o.&.&.&.&.$.$.o.o.o.o.o.o.o.o.o.+.o.o.#.o.#.%.%.#.#.#.#.#.U U U H     ",
": + O ; f f 8 .   a f f       o             . .   .     . . a f a a     % (             z r     .   F C f $         f f u       ",
"2 O   = f f 1     a f a                       . .   o . .   a f f a   . o [   o         w m         1 D D = .       f f u       ",
"2 + . = f f 1   o a f a o o   O . . O                       g f a a     o A 7             k k .     1 f F F . .     f f u       ",
"2 > u p f f a u u f f f u u u u u u u u u u u u u u u u u u f f f a u i i y c p u t i i i i j p t u f f f f j N f u f f f u ;   ",
"2 1 f f f f a f f f f f a f f f f f f f f f a f f f f f f f f f f f f f f f f f a f f f f f f f f f f f f f f f f f f f f f >   ",
"5 < f f f f f f f f f f f f f f f f f f f f f f f f f f f f f f f f f f f f f f a f f f f f f f f f f f f f f f f f f f f f ,   ",
"2 < f f f f f f f f f f f f f f f f f f f f f f f f f f f f f f f f f f f f f f f f f f f f f f f f f f a f f f f f f f f f <   ",
"6 > t t q 8 t t t t t t t t t t t 9 t t t t 9 1 t t t t t 1 t t t t t t t t t 9 t t t 9 t t t t q t t t t 1 t t t t t 9 t t =   ",
"2 .             . . .     O .                                   o                               o                               ",
"6               . . . . o   . O                             . . o                               o                               ",
"4 .           .   X . .                 o                     . o o o                         o   o                             ",
"4 X                   .                                         o o o                       o                                   ",
"2 +                 o .       .   .       o                   . o o o o                                                         ",
": +                     o         . .               .           o o o o                 o                                       ",
"* X .       . . .     O   .   .     .       o                   o o . .     O     o o   o                                       ",
"* X   . . . . . o       +   O X o X .                           o o .       .   o                                               ",
"3 X   . . . . . X . X X   .   X   +           o                 o o   .   . .     o   o o o                               o     ",
": @ .   .   . . . . . .   .         X                           o o   . . .         o   o   o o                           o o o ",
"3 + . . O O O O O . O . . O +   o o   o                               . . .             O               o         o o           ",
"& O   . . O + . O O . O . . O   O X o                                 . . .     . .       O O           o     o   o     o       ",
": O . O . O . O O X O . O   . . . . .                       .   .     . . . X . . .       O             X +           o         ",
"$ $ $ $ # # % % % % % % % % % $ % # # # X   % $ # @ # X % % $ # # @ & @ @ @ X & $ $ $ $ $ $ & $ $ @ @ O % % % $ $ $ $ = = + = + "
};
