/* XPM */
static char *_582629200730[] = {
/* columns rows colors chars-per-pixel */
"64 64 173 2 ",
"   c #030303",
".  c #090606",
"X  c #090907",
"o  c #0B0B0B",
"O  c #100E0E",
"+  c #0E110E",
"@  c #12120E",
"#  c #131313",
"$  c #191616",
"%  c #181815",
"&  c #1C1C1A",
"*  c #201E1C",
"=  c #1E201A",
"-  c #21211C",
";  c #242421",
":  c #282422",
">  c #262822",
",  c #2B2A25",
"<  c #2D2C28",
"1  c #302E26",
"2  c #302E28",
"3  c #2E3028",
"4  c #33332B",
"5  c #38382E",
"6  c #373730",
"7  c #393731",
"8  c #363830",
"9  c #3B3A33",
"0  c #3E3E38",
"q  c #403E36",
"w  c #413E38",
"e  c #3E4036",
"r  c #3E423A",
"t  c #424035",
"y  c #42433A",
"u  c #4B473D",
"i  c #4A493E",
"p  c #4C4B43",
"a  c #514E46",
"s  c #514F49",
"d  c #535346",
"f  c #595946",
"g  c #56554B",
"h  c #59564D",
"j  c #5A5A4F",
"k  c #595751",
"l  c #5C5B52",
"z  c #635D4D",
"x  c #615D55",
"c  c #685E52",
"v  c #625F59",
"b  c #5D624D",
"n  c #69604F",
"m  c #626155",
"M  c #6A6B56",
"N  c #65645A",
"B  c #6A675C",
"V  c #676A5D",
"C  c #6B6B5D",
"Z  c #796A55",
"A  c #716E5D",
"S  c #71715E",
"D  c #797159",
"F  c #6D6D61",
"G  c #706E62",
"H  c #6E7063",
"J  c #737264",
"K  c #7A7666",
"L  c #767B67",
"P  c #7B7866",
"I  c #757469",
"U  c #797569",
"Y  c #76796C",
"T  c #7C7B6C",
"R  c #7E7D71",
"E  c #82755E",
"W  c #817E6D",
"Q  c #837E71",
"!  c #897F72",
"~  c #7F8173",
"^  c #82826D",
"/  c #858374",
"(  c #8A8574",
")  c #878977",
"_  c #8C8A76",
"`  c #868579",
"'  c #8A867A",
"]  c #87897A",
"[  c #8D8B7C",
"{  c #928D7D",
"}  c #988F7F",
"|  c #8F917E",
" . c #93917E",
".. c #9B937F",
"X. c #8D8D81",
"o. c #928F81",
"O. c #8F9181",
"+. c #949483",
"@. c #999585",
"#. c #949983",
"$. c #9C9C86",
"%. c #979789",
"&. c #9A968A",
"*. c #9C9C8B",
"=. c #9C9E92",
"-. c #A19D85",
";. c #A89D87",
":. c #A29E8C",
">. c #9EA18C",
",. c #9EA093",
"<. c #A4A28D",
"1. c #AAA48E",
"2. c #A6A88F",
"3. c #A8A88F",
"4. c #A2A281",
"5. c #B1AE8D",
"6. c #B1A48D",
"7. c #A4A492",
"8. c #A9A593",
"9. c #A6A994",
"0. c #ABAA95",
"q. c #A6A498",
"w. c #A8A698",
"e. c #A5AA9A",
"r. c #ACAC9A",
"t. c #B2AC95",
"y. c #B2AD9A",
"u. c #B9AE9A",
"i. c #AFB197",
"p. c #ADB19D",
"a. c #B4B396",
"s. c #B3B29D",
"d. c #BBB49C",
"f. c #BEBA9E",
"g. c #BBB595",
"h. c #ACACA0",
"j. c #B2AEA0",
"k. c #AEB3A1",
"l. c #B4B4A2",
"z. c #BBB6A2",
"x. c #B6B9A4",
"c. c #BCBBA4",
"v. c #B7B6A8",
"b. c #BCB7AA",
"n. c #B7B9AB",
"m. c #BDBCAA",
"M. c #C2BDA5",
"N. c #CABFA7",
"B. c #C3BEAA",
"V. c #BEC2AC",
"C. c #C4C1A6",
"Z. c #C8C1A2",
"A. c #C4C3AC",
"S. c #C9C5AD",
"D. c #C6C8AD",
"F. c #CAC9AE",
"G. c #C6C5B1",
"H. c #CAC5B2",
"J. c #C6C9B3",
"K. c #CCCBB4",
"L. c #CDCDBA",
"P. c #D0C7B7",
"I. c #D0CDB6",
"U. c #D1CDBA",
"Y. c #CED1B7",
"T. c #CDD1BA",
"R. c #D1D0B7",
"E. c #D2D2BC",
"W. c #D8D4BF",
"Q. c #D0D8BD",
"!. c #D3D3C2",
"~. c #D8D6C3",
"^. c #DCD8C3",
/* pixels */
"d.F.P.K.K.A.C.J.C.A.f.1.f.K.K.!.K.Y.L.L.J.A.A.M.1.d.H.L.E.L.!.Y.D.R.C.F.M.g.A.K.D.K.E.K.F.I.K.H.M.t.d.G.A.B.B.I.K.F.K.F.D.K.C.s.",
"H.A.A.K.K.A.f.G.K.f.K.C.M.C.S.K.Y.F.F.K.A.c.J.G.G.A.G.!.U.E.U.J.I.T.F.K.C.c.Y.K.G.K.F.Z.F.F.N.S.A.c.f.A.A.C.M.C.S.S.K.Y.S.C.K.F.",
"0.1.>.#.*.<.$.7.7.$.;.<.<.<.<.7.0.0.<.<.*.7.0.w.8.7.:.:.8.8.e.e.7.2.>.<.8.:.1.e.1.<.:.<.1.1.7.-.<.;.;.7.7.:.>.$.;.$.<.7.<.1.1.0.",
"s.y.e.*.$.1.8.w.y.0.1.1.0.9.y.s.r.1.e.e.<.q.8.8.y.r.q.8.y.e.u.r.r.3.9.e.1.3.-.1.8.:.8.7.1.e.s.t.8.e.r.e.e.p.1.7.1.1.>.1.9.r.l.z.",
"7.*.+.o.[ / ( ( [ X.o.[ +.{ [ [ / ^ / { [ / Q / [ X.X.[ o.[ [ X./ ~ Q / ~ ^ ( ^ / ' _ / ( ( _ [ ( / / / / [ '  .Q T ^ o.[ @.w.7.",
"V.C.z.<.$.U , 9 y u u y w 0 7 4 > % # o o o o o o o + o O o + o X . .                 .   X o = , 7 i d d k l p 4 < T #.7.s.C.m.",
"H.J.A.<.7.' : p l C U R R A l a 9 -                                                         @ 5 g V T ] [ +./ J p < / $.q.H.K.C.",
"A.L.K.<.r.W 1 p B R [ X.%.} W B a w *         . X o o . o .   . X   . .   . .     .   .   @ 0 h S | 7.7.r.7.#.' g 4 T 7.0.U.L.D.",
"G.H.K.>.r.Y 4 p C / #.,.0.r.1.+.F g w & o         o o   o o   o X   . X   X O   + o     # 0 k H  .r.m.J.m.y.,./ g 4 I 8.<.E.L.K.",
"m.A.D.0.r.~ 3 p C ` <.0.s.c.z.t. .J l y - .                   . .     X         o     O 9 k F _ <.z.T.T.H.y.:.Q g 4 Y s.0.R.L.G.",
"G.G.K.0.l.T < y N / #.5.C.J.A.c.e. .T l y : o . o # O + $ o o + O X O o o + o   .   # 6 l J ] w.x.Y.!.J.l.8.@.T a 4 T s.0.E.!.U.",
"D.B.K.7.l.T , i N U  .t.K.K.J.K.m.y.+.U l y - o   o + O + # o O +     O X X O   o O 8 h G o.e.V.T.!.!.V.8.+./ V y < U z.r.R.E.H.",
"w.D.F.<.s.T - 9 j I +.7.x.A.A.Y.Y.c.p.[ I l r ; o                               + 8 l J ' r.B.P.L.E.m.r.*.~ H a 5 - I l.q.K.H.G.",
"z M.A.<.8.W - 4 a F ^ | *.a.F.K.R.K.c.0.[ F k r ; o X O # X O # o o O o o O . o 6 g J ' <.v.S.S.F.V.k.,.] H g e > * S u.t.I.M.z ",
"6.M.B.:.4.W & > t m C T { :.f.D.A.Z.K.G.p.[ J k r * + O . O o O O . X o   o + 9 j J [ r.M.K.F.N.d.r.*.X.J k i 1 - % A 8.0.P.H.t.",
"u.M.A.<.<.T & = 4 p N I Q [ <.z.A.S.W.E.c.<.O.I k p ; o       o .   .     + 9 g J / e.B.K.S.F.c.9.#.] F l p 4 - # @ W 0.e.L.I.B.",
"z.M.C.;.4.^ @ % > w d N J Q { 7.b.S.~.I.H.M.:._ H h w < o # $ ; # $ ; O & 7 f F ! y.M.I.K.Z.m.l.*./ F l p 9 : & + o ( l.r.I.K.B.",
"A.c.c.$.1.K @ X & 4 w s N U ' +.y.z.I.W.^.P.z.1.( G h y > + O o O . # o 5 f I [ :.z.L.U.R.M.e.:.( G h p 7 < & + o @ T y.r.U.K.H.",
"B.f.G.7.<.( O   o & < 9 a m U W @.u.M.I.U.^.G.u.7.+.P j w > O       $ 5 d I  .7.d.M.U.~.G.t.#.' U x p 9 < - # o   . / r.e.U.U.G.",
"A.z.A.1.s.{ @   . o & 3 w a N U / &.8.b.K.K.G.F.D.l.#.I h w > o X & 0 d A X.0.v.G.H.G.M.7.o./ J l p 9 < - % o o . o ` e.8.I.I.A.",
"A.F.M.$.r.X.@     . o = < 0 d N G ` &.8.M.H.H.W.E.G.s.[ G k y > # 8 k F _ e.c.A.S.m.t.<. ./ U k p 9 1 - $ o o o   + ] l.0.K.H.m.",
"s.c.C.>.7.+.#         o & < 0 g v I ! o.7.v.P.I.H.K.G.e._ J k 0 8 k R &.y.z.D.A.A.z.:._ Q I l p 7 1 * # o         X ' v.s.H.L.M.",
"C.A.A.<.<.[ $         . o & < w a v J W { 8.v.K.I.F.J.z.7.| I k g I o.l.A.G.K.m.x.7.#.Q J v p 7 < - % o o . X o   o ` l.j.A.L.H.",
"K.m.A.+.<.+.$     .   . o o & < w a m G T ' 8.A.H.H.L.L.m.s.O.L F +.0.v.K.K.K.z.*.+.[ U N p 7 1 - % o o . . o o . o ] k.r.K.L.H.",
"A.S.C.>.e.+.%               O & , 9 a x F ` #.r.B.K.J.L.K.c.s.%.` r.z.B.F.D.B.e.{ T J m p 7 < - $ o           o     ] n.h.H.M.c.",
"w.K.C.#.r.%.&   . X   X .   o O & , q p m I [ *.r.c.A.K.T.J.x.s.:.j.A.K.H.c.h.*._ U m p 8 < - @ O .   . o   o O   o ` v.k.H.G.G.",
"m A.A.>.q.&.&   X o . o o   o   o & : 9 p m I ` #.<.s.M.K.D.B.m.l.z.m.K.n.0.=.X.I m a 9 < * % O X     o o o + O X O ] k.r.H.A.z ",
"u.A.D.$.l.+.$     .   X o         o * 2 7 p x J / +.$.a.A.A.G.J.B.B.A.m.r.,.[ Y l u 7 < = $ o           .   O O   X X.v.r.G.S.u.",
"K.K.D.+.y.+.* o O O o + O o o o   X o - < 0 p N I T _ 7.z.H.D.J.I.G.l.r. .] T l p 7 < - O o O   X X   + # O $ $ o $ ` n.e.K.H.D.",
"C.K.A.<.7.[ & X + # O + # . # + . o X # = 4 y p l S ^ +.0.z.K.Y.K.m.8.*.^ C l p 9 < - # . o     o O o # $ # & * + $ ( p.r.K.I.A.",
"A.F.A.<.w.[ &   o O   O o   o .   . .   % - 4 6 p k F W #.e.f.C.A.s.*.] I m p w 4 ; #             o   O O   # O   o ] v.r.K.H.N.",
"G.K.K.8.8.[ & X + # O # # o O O . o X   @ - < 0 p j C ~ X.@.<.a.c.,.X.R J m k p 0 < & o   X o   o + O # & + ; & o $ / r.e.P.U.U.",
"K.I.K.<.1._ & o # $ + & $ o + O X O O o = 0 g C ~ +.9.k.l.y.t.7.q.<.*.<.<.8.*.` C d w - X o X   + # O & & O & $ O # R q.,.B.I.P.",
"U.S.F.>.1.[ &   o O   o +   o X   X . % 0 k F ] <.x.Y.!.H.z.0.@.{ <.c.K.M.S.u.7.[ C k 0 @ o X   o O   # #   # #   o X.q.r.S.I.U.",
"F.T.A.$.1.O.- o O # O & * O $ O . # & t d Y [ w.V.Y.Q.T.z.7.+./ T &.z.K.S.A.M.l.r.| C g 0 & + o $ & # * ; # ; & O $ X.h.r.K.K.A.",
"K.K.D.$.7.| & o # # o * * + $ # X $ y k J [ r.V.K.!.!.G.k.+.^ H C / <.f.S.H.A.A.z.<.[ J j 0 % . $ $ O & & O & & o # R v.r.Y.K.S.",
"A.H.B.<.7.+.&   o o   O #   O o & 9 j J ) 7.M.K.J.U.m.r.*.` H k j T  .0.M.A.S.P.Y.a.1. .Y j 0 & + #   + +   # O   O ` b.s.T.D.C.",
"! N.A.*.r.%.- X O $ O & & + & & 0 k H [ 8.c.H.F.M.c.r.=.X.H k p a I / { 0.t.M.C.Y.f.t.0.| J k r ; $ + & & + * & O # ` b.c.K.z.8.",
"E M.A.7.e.X.& o # # o & * o - t k J [ h.M.I.K.A.d.8.&.] Y l p 8 9 m J W  .-.g.C.I.K.G.V.r. .H l r ; o $ $ O # $ o # ` b.x.E.d.D ",
"d.B.D.7.h.X.$   o O   O o - i j G _ 7.m.F.S.Z.A.r.#./ H l p 8 < 4 a m S W _ 1.d.F.A.R.K.c.r._ J l r * O O   O o   O ` x.b.L.N.t.",
"H.D.M.$.e._ ;   o # X $ : w d I ` 1.B.P.E.U.c.y.>./ J j p 9 < = : e d l A / +.:.g.H.H.H.F.c.r.{ J k 0 > & . O # . o ` v.l.L.H.H.",
"K.H.M.;.0.{ & o o $ O < q f J ' 1.s.H.E.E.B.0.&.' I j p 9 2 - % & < 0 d l J W _ 7.c.H.K.P.U.S.s.[ I k r ; . # o . O / k.l.L.I.I.",
"U.F.K.7.0.+.&   o o > t f F { 7.l.A.K.R.B.0.@./ J l p 0 , : $ o @ - 4 0 i b J / o.8.z.H.K.E.I.z.7. .J k r ; o o   . ` x.l.K.R.E.",
"U.P.A.-.t.o.*   O - w g U | r.m.G.S.A.u.8.../ I k p 0 < * $ o .   o = < 5 p N I ! o.:.z.G.P.E.K.c.8.( C g 0 = #   o ~ n.l.L.E.W.",
"H.H.A.7.s. .& o - i g C [ <.a.c.S.C.u.-.{ / J l p 9 < - $ O O       o = , 9 p m I /  .7.c.P.R.!.R.z.7._ H k i - . o ~ m.c.~.!.L.",
"K.F.F.7.q.( & - 5 d F _ 9.t.M.D.A.l.7.{ W I x p 9 3 - % +             X = < e p v G W +.h.M.K.R.L.H.z.r.#.Y l e : o Y n.z.!.K.H.",
"A.K.F.1.3.( < 4 p J | 3.a.F.K.K.i.7.%.] U v p 9 < - # O .     o     .   o = 1 5 p x G ^ #.r.M.K.F.I.L.G.l.+.J f 0 - Y s.l.R.K.A.",
"A.K.C.<.1.( 5 u C | 0.l.A.F.Y.V.7.| Q I v p 7 , - % o o   X   O X .   X   o = < 9 a m G ! &.8.b.K.K.U.I.A.l.o.G l 4 U x.l.K.F.A.",
"K.K.F.:.1.{ 9 j ( <.c.Y.Y.K.x.9.%.T H j d 9 < = $ X .                       o = 2 9 p x U / +.7.m.K.K.K.H.m.9.[ G y I s.s.D.J.A.",
"G.K.K.*.:._ w J <.x.T.E.K.z.r.#._ Y l y 7 2 & # o   .     o   o o   X         O * 1 9 a N I / +.<.v.I.I.H.L.c.w.[ d L s.s.J.f.d.",
"Q C.H.1.q.( p ( V.T.!.T.z.7.@./ J m p 5 , = $ X X         # o + # o . O X X . X O * , 9 p v I Q +.7.B.K.K.U.K.c.7.V C p.s.A.c.} ",
"E H.I.e.1.W h <.K.T.!.J.h.#.^ G k p 8 , - $ X                 . .               . X * , q s l J ` &.7.m.K.K.T.Y.l.S C z.d.A.d.Z ",
"u.K.T.8.$.W m 0.H.R.m.e.*.` H k p 6 < = # X   X   X X X O o . + # o # X o O .   . . o & < 9 p x J ` +.7.m.J.K.K.M.P b f.j.G.B.d.",
"H.I.c.<.1.K m g.B.c.r.=.X.H j i 6 < & $ X X       . .   . X o + # o O + o o O     . X + & < 8 p l I ` +.e.z.A.Y.V.T f 0.l.L.H.G.",
"K.H.C.9.1.P C 3.d.1.*.] I l p 8 , = # X .                     . o                       o = < 8 p x I / { :.d.K.C.P d 3.p.K.K.J.",
"L.G.K.7.7.T T | { T Y H l p 8 , = # o   .   . o . O o o + O O # # + # o o $ o o o X   X . o - 3 y a N J W { 7.C.s.S m 2.7.A.G.m.",
"H.D.F.$.7.^ T F M j d p p 9 < & $ o O . o o o + o o # @ X $ # $ $ # $ # o $ $ o @ # X o o o # - < r p l C J / $._ C V 9.:.K.D.A.",
"X.] / ] +.` ~ ` / ) / / ` ] ` ` P / T J J J U T Y J J J J I U R I I K G U G F B M A N M M M S ^ ) ' ` / Y Y L C S J R *./ _ [ ] ",
"e.r.r.x.w.7.9.k.x.v.r.k.v.f.e.0.s.s.r.8.u.l.c.s.u.7.8.i.7.r.t.c.n.b.t.t.r.s.r.w.s.8.8.i.0.s.v.s.r.l.x.j.x.v.m.l.p.h.7.7.l.b.x.j.",
"r.1.0.e.k.9.>.e.k.l.k.l.p.8.1.e.0.0.1.9.8.8.9.0.7.*.8.:.<.*.<.y.e.r.8.,.y.r.s.r.r.>.2.>.9.3.a.r.t.r.y.r.s.l.r.r.r.r.@.&.:.7.7.r.",
"H.B.H.K.J.D.D.D.L.E.E.L.K.J.D.K.D.C.C.H.K.M.K.L.L.G.J.A.B.B.C.F.B.K.U.L.U.T.K.J.V.D.A.J.K.M.U.L.U.K.K.H.L.E.K.R.H.B.B.B.c.H.H.K.",
"S.K.F.G.K.F.K.A.J.L.U.F.J.F.K.J.D.M.J.K.A.G.K.U.K.D.A.A.J.A.F.T.H.K.K.U.L.D.A.F.D.Y.A.Y.S.H.F.I.T.K.A.A.U.I.H.K.L.A.G.H.G.B.H.G.",
"6.B.G.F.D.J.K.J.H.S.S.B.s.S.K.K.I.H.D.K.H.M.B.H.G.r.A.M.D.A.G.K.H.F.A.B.S.B.s.F.K.K.f.P.B.G.B.H.S.S.e.S.H.S.S.S.H.S.B.F.H.S.K.A.",
"z z.D.G.F.D.H.H.H.G...u 1.G.A.F.K.K.J.J.K.J.K.M.c c B.K.L.K.G.J.F.S.G.N.@.u :.D.D.C.C.F.P.H.H.H.M.c c A.F.A.A.G.S.D.D.D.H.H.M.c "
};
